HIERARCHY
ROOT Pelvis
{
	OFFSET 0.000000 0.000000 0.000000
	CHANNELS 6 Xposition Yposition Zposition Zrotation Yrotation Xrotation 
	JOINT Left_hip
	{
		OFFSET 0.068973 -0.091024 -0.007589
		CHANNELS 3 Zrotation Yrotation Xrotation
		JOINT Left_knee
		{
			OFFSET 0.036482 -0.391037 -0.003979
			CHANNELS 3 Zrotation Yrotation Xrotation
			JOINT Left_ankle
			{
				OFFSET -0.012239 -0.415469 -0.043440
				CHANNELS 3 Zrotation Yrotation Xrotation
				JOINT Left_foot
				{
					OFFSET 0.023806 -0.058558 0.118702
					CHANNELS 3 Zrotation Yrotation Xrotation
					End Site
					{
						OFFSET 0.000000 0.000000 0.000000
					}
				}
			}
		}
	}
	JOINT Right_hip
	{
		OFFSET -0.066552 -0.090468 -0.003847
		CHANNELS 3 Zrotation Yrotation Xrotation
		JOINT Right_knee
		{
			OFFSET -0.042435 -0.398340 -0.006400
			CHANNELS 3 Zrotation Yrotation Xrotation
			JOINT Right_ankle
			{
				OFFSET 0.014931 -0.415421 -0.041327
				CHANNELS 3 Zrotation Yrotation Xrotation
				JOINT Right_foot
				{
					OFFSET -0.021472 -0.049410 0.121889
					CHANNELS 3 Zrotation Yrotation Xrotation
					End Site
					{
						OFFSET 0.000000 0.000000 0.000000
					}
				}
			}
		}
	}
	JOINT Spine1
	{
		OFFSET -0.002904 0.105700 -0.022855
		CHANNELS 3 Zrotation Yrotation Xrotation
		JOINT Spine2
		{
			OFFSET 0.004179 0.132554 -0.002501
			CHANNELS 3 Zrotation Yrotation Xrotation
			JOINT Spine3
			{
				OFFSET 0.001987 0.049603 0.025988
				CHANNELS 3 Zrotation Yrotation Xrotation
				JOINT Neck
				{
					OFFSET -0.003935 0.211336 -0.045638
					CHANNELS 3 Zrotation Yrotation Xrotation
					JOINT Head
					{
						OFFSET 0.003906 0.065991 0.051018
						CHANNELS 3 Zrotation Yrotation Xrotation
						End Site
						{
							OFFSET 0.000000 0.000000 0.000000
						}
					}
				}
				JOINT Left_collar
				{
					OFFSET 0.072882 0.117751 -0.036270
					CHANNELS 3 Zrotation Yrotation Xrotation
					JOINT Left_shoulder
					{
						OFFSET 0.082118 0.032630 -0.005771
						CHANNELS 3 Zrotation Yrotation Xrotation
						JOINT Left_elbow
						{
							OFFSET 0.263305 -0.015144 -0.028095
							CHANNELS 3 Zrotation Yrotation Xrotation
							JOINT Left_wrist
							{
								OFFSET 0.250741 0.010115 -0.000759
								CHANNELS 3 Zrotation Yrotation Xrotation
								JOINT Left_palm
								{
									OFFSET 0.080683 -0.009989 -0.013613
									CHANNELS 3 Zrotation Yrotation Xrotation
									End Site
									{
										OFFSET 0.000000 0.000000 0.000000
									}
								}
							}
						}
					}
				}
				JOINT Right_collar
				{
					OFFSET -0.074811 0.116132 -0.040385
					CHANNELS 3 Zrotation Yrotation Xrotation
					JOINT Right_shoulder
					{
						OFFSET -0.085089 0.032943 -0.007484
						CHANNELS 3 Zrotation Yrotation Xrotation
						JOINT Right_elbow
						{
							OFFSET -0.254763 -0.014219 -0.020321
							CHANNELS 3 Zrotation Yrotation Xrotation
							JOINT Right_wrist
							{
								OFFSET -0.256597 0.009233 -0.005063
								CHANNELS 3 Zrotation Yrotation Xrotation
								JOINT Right_palm
								{
									OFFSET -0.080528 -0.007219 -0.010379
									CHANNELS 3 Zrotation Yrotation Xrotation
									End Site
									{
										OFFSET 0.000000 0.000000 0.000000
									}
								}
							}
						}
					}
				}
			}
		}
	}
}
MOTION
Frames: 12
Frame Time: 0.100000
0.249200 -0.135883 0.735572 167.660897 54.516628 -25.250557 11.672329 1.372954 4.406345 -1.246832 -15.439568 10.455320 -6.958689 5.127468 5.910945 2.171505 7.168639 -7.483795 -1.005955 -6.480514 10.882620 3.187347 1.666292 -2.587005 2.897011 -10.267557 -3.884551 -3.149069 -3.047609 6.754878 -0.476045 3.463074 -2.655365 -1.113200 -3.783820 14.127172 -1.550650 2.760006 -1.018760 4.164616 -24.219489 15.589933 17.378464 -13.693871 -6.745963 -15.902856 -4.218423 2.618185 -52.025757 3.446660 13.926028 2.257609 -28.914299 14.797471 2.544472 -3.866929 4.374145 -13.573555 -6.808676 -11.280443 2.367665 16.132737 1.034778 28.328618 20.187682 -5.072383 -3.291486 44.290804 -6.324380 -6.401961 4.941174 -12.957345 13.727183 3.112636 -2.010987 
0.261614 -0.135943 0.719406 169.058853 54.974887 -23.705736 10.371445 1.738956 1.642666 -2.362747 -15.382206 12.172710 -8.256651 7.320918 6.629689 3.835534 4.981608 -7.250819 -2.064440 -6.976735 9.191882 2.758567 2.994379 -2.618105 4.703213 -11.684580 -2.950851 -7.017438 -1.583991 5.887643 1.741692 3.403267 -0.123392 -3.127402 -3.738983 12.775907 -1.897450 4.088343 0.074736 2.733951 -29.828896 19.025423 20.506615 -9.362716 -4.770727 -16.022591 -5.762707 2.628038 -51.129718 4.818678 11.302218 1.284566 -28.696922 17.905070 -0.950091 -4.806866 5.171412 -11.926116 -6.611739 -7.860154 -5.770972 17.089524 -0.543321 11.273482 22.678384 -19.410661 -1.241176 33.165633 -5.643139 2.535761 6.275122 -2.074472 10.644295 3.585681 -2.795252 
0.270327 -0.136262 0.705559 170.767919 55.927666 -21.499133 9.621512 1.790397 -0.961875 -3.803863 -12.126398 12.705412 -8.853432 6.933765 6.597842 4.746541 6.123366 -5.423194 -3.822697 -6.736111 7.332606 2.862205 1.067111 -2.307767 7.142832 -10.035593 -2.709317 -10.666163 -3.874920 5.494959 2.193603 2.766241 1.269160 -3.700858 -4.757698 11.463973 -1.714386 3.721963 1.575654 1.262699 -30.724208 25.107988 21.577474 -5.564712 -2.784035 -14.964571 -5.113412 2.386333 -54.098284 6.089367 11.182167 4.653887 -29.401549 16.609114 -3.627903 -7.302808 0.673465 -10.959438 -5.032863 -6.696735 -11.998125 15.021264 -3.364502 6.444883 23.317390 -24.038871 -10.962553 52.856133 -17.181120 6.005529 11.894054 -12.887988 9.674486 0.762000 -1.647447 
0.271297 -0.135151 0.696044 171.100670 56.398317 -20.485640 9.802042 1.927816 -0.315613 -2.606796 -8.446916 12.598472 -7.457278 6.434200 4.881410 4.527623 8.356616 -3.732381 -4.638320 -6.270201 6.177676 2.819356 -0.869341 -2.190420 8.363265 -7.637414 -2.609756 -11.001330 -6.752295 5.467378 1.834131 2.398147 1.130884 -3.543082 -5.149174 11.036165 -1.662537 3.094935 1.928037 1.120757 -28.590864 26.230842 20.423491 -4.607045 -3.696655 -14.920502 -4.978337 1.855605 -54.881501 8.378579 11.942416 7.182708 -31.548236 15.758722 -7.330557 -9.618846 -1.187975 -10.258151 -4.186444 -7.195926 -12.402688 13.977295 -4.340654 7.165726 21.296355 -20.794052 -46.355403 78.642516 -47.883631 7.249868 17.286180 -19.406126 10.103755 -1.662958 -1.554647 
0.265402 -0.131572 0.688749 167.972778 58.211204 -22.956330 11.438216 2.180361 1.696033 -0.674618 -5.825737 14.351070 -6.811935 7.051361 4.852261 5.344948 9.639132 -3.115779 -4.401305 -6.163358 6.171972 3.096174 -2.579762 -1.719537 8.460839 -6.478811 -3.212529 -10.129219 -8.107526 5.538227 1.140700 2.440848 -0.091673 -3.206248 -5.348285 10.929239 -1.551986 2.129701 1.775719 1.233991 -26.733822 25.516183 19.441576 -6.096159 -5.068732 -15.657079 -4.570180 1.414892 -53.480436 8.756703 12.339732 8.650494 -33.392919 13.216066 -10.665118 -11.209675 -0.499036 -10.498885 -4.282010 -8.172368 -10.119299 12.687380 -3.782112 10.591759 15.013784 -13.695838 -173.823713 75.390796 -171.408700 12.655883 23.032587 -23.585395 10.493052 -2.478014 -1.223920 
0.252707 -0.125791 0.673183 161.835888 61.003160 -27.982620 12.490021 3.850645 4.757839 0.298696 -4.827833 10.023723 -8.351407 8.492400 5.077483 6.500534 8.616498 -3.049034 -3.906529 -6.661997 6.306213 3.206480 -3.488220 -1.727022 7.793542 -7.436671 -3.503426 -8.477000 -7.459418 6.056299 1.918115 1.288462 -1.445936 -3.756506 -5.473559 9.714523 -1.807494 1.223454 2.359255 0.802814 -25.873292 25.062939 17.522870 -6.404145 -5.945439 -15.822452 -3.639939 0.334888 -52.008063 8.394505 12.435237 8.892150 -36.128060 11.427423 -13.326860 -11.299784 2.494711 -11.540971 -5.301765 -8.665610 -10.530269 10.696992 -3.193251 11.463362 7.932726 -7.118143 149.055146 70.248524 154.270956 23.840598 26.243167 -22.039001 9.863742 -0.956214 -1.549636 
0.236044 -0.119649 0.645469 155.776711 62.296048 -32.919861 11.851988 6.383016 8.705948 1.017418 -3.005778 0.882768 -6.623438 9.900110 3.638653 4.281288 8.382096 -2.632849 -3.606402 -7.463116 5.479934 2.336578 -3.278795 -1.217884 6.842596 -8.720068 -2.408848 -5.112259 -7.009625 7.142574 2.667271 -0.121499 -2.498859 -4.215869 -5.171610 8.429460 -2.277078 1.075540 2.612595 1.541543 -26.353729 24.428851 15.489787 -6.345519 -7.040906 -15.495327 -3.711460 -1.130606 -51.427819 8.740429 12.033475 8.555470 -38.343495 12.390751 -15.381798 -8.608499 8.235772 -11.530423 -6.701930 -8.499123 -11.003839 9.219836 -2.799798 9.706297 6.089135 -5.367062 86.704200 70.805141 101.868008 30.776155 16.289625 -0.269796 9.592068 2.281721 -5.319573 
0.224086 -0.112151 0.606888 155.949996 60.127040 -32.993807 10.810359 6.669060 11.407083 0.260163 -4.260502 -2.888264 -3.915188 11.138233 2.560954 0.810387 7.951669 -3.605311 -4.624102 -7.976604 4.067385 1.212660 -0.816168 -0.115091 6.661072 -9.652156 0.040421 -3.283864 -5.795902 6.744118 2.614324 -0.476435 -2.614167 -4.318314 -4.519904 7.798287 -2.811886 2.017319 2.275055 1.924781 -27.135094 22.590927 13.498736 -5.361909 -5.092252 -14.664624 -5.101231 -1.367144 -51.034626 8.912082 10.800934 6.015986 -37.709636 16.861548 -13.390385 -5.469312 11.361157 -10.023269 -7.135246 -6.283573 -10.071660 10.666895 -2.459356 5.923812 13.032411 -10.734051 29.330180 55.879498 55.032576 21.900557 2.775634 28.305049 9.136187 4.875488 -8.799136 
0.218153 -0.103740 0.562711 160.626717 55.858087 -29.018193 7.696094 7.352815 11.413847 -0.673172 -2.466347 -2.297373 -1.404181 13.266251 0.978016 -1.191200 6.412985 -3.511297 -6.610069 -7.845950 1.725480 -0.094976 2.046906 0.081118 8.791974 -9.623080 3.250928 -5.021108 -3.743067 4.581664 2.260861 -0.080587 -2.401498 -4.981068 -3.938518 7.820072 -3.685885 3.304730 1.364466 1.076049 -27.644866 20.821612 13.088986 -4.041430 -2.531729 -13.728025 -6.992277 -1.058405 -50.233411 8.939143 10.668823 3.595798 -33.015919 19.319993 -7.665249 -5.938480 10.351656 -7.797716 -6.427142 -5.541729 -10.312219 14.004647 -2.567226 2.151097 21.393336 -18.344437 8.641169 43.821217 30.465886 8.746871 4.013237 35.323111 8.437056 4.203156 -9.491044 
0.213858 -0.095166 0.525194 162.753435 52.585019 -27.373938 5.551990 7.680843 12.857236 -1.245458 -1.042804 -5.404888 0.055822 14.122262 0.178308 -1.347197 6.506281 -1.621168 -7.541616 -7.528978 -1.288344 -0.924071 2.523959 1.797115 10.686941 -8.995748 4.993332 -6.753957 -3.721886 3.296030 1.623606 -0.019453 -1.681756 -5.314740 -3.304796 7.219591 -3.800177 3.837144 1.624160 0.839325 -26.918131 20.050634 13.353185 -3.143486 -2.958385 -12.970255 -7.483704 -1.861313 -50.215192 9.101528 12.237531 4.280654 -29.156367 17.833573 -4.687994 -6.169288 8.155405 -7.477617 -6.185765 -7.422835 -11.297221 14.759920 -3.727199 1.608974 23.218858 -19.534445 2.457388 51.409595 15.059149 2.913539 7.717783 20.510730 9.227226 2.392052 -9.370303 
0.210025 -0.091105 0.500228 160.986643 52.852446 -29.330490 5.030289 7.493067 14.639980 -1.447290 -1.996657 -8.971350 -0.188181 14.439205 0.207314 0.986620 6.091824 0.206332 -7.709445 -8.197779 -2.652994 -1.101297 -0.505652 4.496164 11.062010 -10.952851 5.355296 -8.473656 -4.067534 2.639944 0.874378 -0.391622 -1.190375 -5.611743 -3.360855 6.447531 -3.681487 3.294069 2.201278 0.310356 -25.999048 20.867664 13.467738 -2.499074 -2.698608 -13.227615 -5.948244 -2.488524 -48.458656 9.083996 13.118299 5.264830 -28.547448 15.265473 -9.036066 -6.292344 8.001084 -8.403601 -6.064230 -8.233845 -10.870228 13.775618 -5.124173 3.561513 21.862751 -16.238639 2.722613 59.269635 8.273825 14.115466 9.148485 4.107143 8.598172 1.226460 -7.669478 
0.206990 -0.089762 0.483335 159.788725 53.001392 -31.371936 4.439634 7.367980 14.446475 -1.420950 -2.107980 -7.401573 0.671679 14.128517 0.240822 0.323433 7.332508 0.061473 -6.726815 -9.514321 -2.579232 -1.210701 -3.322007 6.840013 10.287343 -12.229971 5.060521 -7.328189 -5.336571 3.237023 0.463966 -0.281452 -0.711109 -5.508184 -3.353724 6.377044 -3.699577 3.275582 2.334420 0.966167 -25.424108 21.692926 12.763016 -1.794297 -1.348918 -13.774087 -5.972146 -2.399666 -47.911208 10.095166 11.756638 6.781157 -28.221526 14.568860 -11.444414 -5.507778 9.462244 -7.993706 -6.087922 -6.777456 -9.588737 13.541574 -4.919044 2.180431 21.604387 -16.877676 6.216470 63.736194 21.230785 14.822800 5.882679 19.479917 8.856125 1.784513 -8.847999 
